<svg xmlns="http://www.w3.org/2000/svg" xmlns:xlink="http://www.w3.org/1999/xlink" width="100" zoomAndPan="magnify" viewBox="0 0 75 37.5" height="50" preserveAspectRatio="xMidYMid meet" version="1.2"><defs><clipPath id="3c9e03cd21"><path d="M 36 4.269531 L 53 4.269531 L 53 27 L 36 27 Z M 36 4.269531 "/></clipPath><clipPath id="3a409f506d"><path d="M 12.917969 6 L 27 6 L 27 27 L 12.917969 27 Z M 12.917969 6 "/></clipPath><clipPath id="6b3d2b06bc"><path d="M 48 6 L 61.765625 6 L 61.765625 27 L 48 27 Z M 48 6 "/></clipPath><clipPath id="a48b42c15a"><path d="M 19 15 L 36 15 L 36 30.914062 L 19 30.914062 Z M 19 15 "/></clipPath><clipPath id="6da4e24c6f"><path d="M 22 8 L 56 8 L 56 30.914062 L 22 30.914062 Z M 22 8 "/></clipPath><clipPath id="06de4ad0ce"><path d="M 30 19 L 45 19 L 45 30.914062 L 30 30.914062 Z M 30 19 "/></clipPath></defs><g id="6973253057"><path style=" stroke:none;fill-rule:evenodd;fill:#ccae50;fill-opacity:1;" d="M 21.957031 15.550781 L 20.582031 11.078125 L 18.394531 9.765625 L 20.738281 17.40625 Z M 21.957031 15.550781 "/><g clip-rule="nonzero" clip-path="url(#3c9e03cd21)"><path style=" stroke:none;fill-rule:evenodd;fill:#ccae50;fill-opacity:1;" d="M 50.242188 26.835938 L 52.300781 26.835938 L 38.210938 5.359375 L 37.496094 4.269531 L 36.480469 5.824219 L 37.496094 7.382812 Z M 50.242188 26.835938 "/></g><g clip-rule="nonzero" clip-path="url(#3a409f506d)"><path style=" stroke:none;fill-rule:evenodd;fill:#ccae50;fill-opacity:1;" d="M 25.410156 18.058594 L 25.410156 18.066406 L 26.625 16.214844 L 26.625 16.210938 L 25.972656 14.089844 L 25.9375 13.992188 L 23.78125 12.78125 L 24.757812 15.941406 L 19.910156 23.335938 L 15.125 7.804688 L 12.933594 6.492188 L 18.8125 25.574219 L 19.203125 26.835938 L 19.652344 26.835938 L 20.339844 25.792969 Z M 25.410156 18.058594 "/></g><path style=" stroke:none;fill-rule:evenodd;fill:#ccae50;fill-opacity:1;" d="M 56.597656 9.765625 L 54.414062 11.078125 L 53.039062 15.550781 L 54.253906 17.40625 Z M 56.597656 9.765625 "/><g clip-rule="nonzero" clip-path="url(#6b3d2b06bc)"><path style=" stroke:none;fill-rule:evenodd;fill:#ccae50;fill-opacity:1;" d="M 59.875 7.804688 L 55.085938 23.335938 L 50.238281 15.941406 L 51.214844 12.78125 L 49.058594 13.992188 L 48.371094 16.214844 L 49.582031 18.066406 L 49.582031 18.058594 L 54.652344 25.792969 L 55.339844 26.835938 L 55.792969 26.835938 L 56.183594 25.574219 L 62.0625 6.492188 Z M 59.875 7.804688 "/></g><g clip-rule="nonzero" clip-path="url(#a48b42c15a)"><path style=" stroke:none;fill-rule:evenodd;fill:#ccae50;fill-opacity:1;" d="M 34.953125 15.910156 L 27.792969 26.835938 L 27.789062 26.835938 L 26.121094 29.386719 L 19.976562 29.386719 L 20.503906 31.097656 L 27.042969 31.09375 L 29.832031 26.835938 L 35.972656 17.472656 Z M 34.953125 15.910156 "/></g><g clip-rule="nonzero" clip-path="url(#6da4e24c6f)"><path style=" stroke:none;fill-rule:evenodd;fill:#ccae50;fill-opacity:1;" d="M 47.207031 26.835938 C 43.460938 21.128906 39.71875 15.414062 35.972656 9.707031 L 35.492188 8.96875 L 34.953125 8.144531 L 22.699219 26.835938 L 24.757812 26.835938 L 34.960938 11.265625 C 38.324219 16.402344 41.753906 21.636719 45.160156 26.835938 L 47.953125 31.09375 L 54.492188 31.09375 L 55.015625 29.382812 L 48.875 29.382812 Z M 47.207031 26.835938 "/></g><g clip-rule="nonzero" clip-path="url(#06de4ad0ce)"><path style=" stroke:none;fill-rule:evenodd;fill:#ccae50;fill-opacity:1;" d="M 30.09375 31.09375 L 44.902344 31.09375 L 37.496094 19.796875 Z M 37.496094 29.382812 L 33.257812 29.382812 L 37.496094 22.914062 L 41.738281 29.382812 Z M 37.496094 29.382812 "/></g></g></svg>